<svg xmlns="http://www.w3.org/2000/svg" xmlns:xlink="http://www.w3.org/1999/xlink" version="1.1" x="0px" y="0px" viewBox="0 0 1440 1440" enable-background="new 0 0 1440 1440" xml:space="preserve"><g><path d="M458.522,606.487c0,0,4,6,0,13s-16,42-16,42s-2,25,0,36s7.889,34,8.444,50s3.444,27,0,35s-9.333,15-9.333,15l6.193,3.982   l3.14,2.018l-9.333,5l9.333,7c0,0-0.556-7,0,11s0,46,0,46s3.111,16,9.333,27s21.222,40,21.222,40l53,83c0,0-6,4,21,10s46,17,46,17   l36,21c0,0,22,18,33,23s53,15,53,15h109c0,0,20-9,29-9s38,2,38,2s6,3,19-1s24-21,27-23s14-18,17-26s24-31,24-31l10-5v-16l10-17   c0,0,13-18,13-28s6-57,6-57v-49l7-11l5,12c0,0,7,5,6-2s0.098-15,0.098-15l6.902-1c0,0,13-32,10-44s-17-39-17-39s-3-10,0-18   s8-21,8-30s-3-51-5-67s-6-27-6-27s-7,24-12,40s-6,23-16,32s-27,10-27,10s-31-3-44-12s-43-32-43-32s-7-9-37-17s-88-10-88-10   s-51,16-64,22c-13,6-51,17-51,17s-7,15-18,22s-28,11-28,11l-57,68l-13-23c0,0-8-5-8,1s-5,13-5,13s-8-8-13-19c-5-11-27-67-27-67   s-5-20-9-28S458.522,606.487,458.522,606.487z"></path><path fill="#000000" d="M723.701,785.908c0,0,4,7.332,0,12c-4,4.666-4,18-4,18s0,5.332,10,0c10-5.334,12.667-13.631,19.334-13.816   c6.666-0.184,13.332,1.816,15.332,3.816s10.668-0.297,18.001-3.816c7.333-3.518,26.666-6.184,26.666-6.184s9.334-2.668,30.667-4   c21.333-1.334,30,2.666,30,2.666l14-8.666c0,0-9.333,2.666-17.333,0c-8-2.668-38-18-38-18s-13.333-2.668-22,0   C797.701,770.574,723.701,785.908,723.701,785.908z"></path><path d="M422.287,416.125c0,0-5,19,0,26s4,10,13,8s84-16.696,84-16.696h10c0,0,5,47.696,11,69.696s19,55,24,60s27,22,34,23   s35,8,48,6s66-10,84-26s30-34,31-54s1-38,14-40s27,2,37,16s8,43,8,43l0.163,12l10.837,9c0,0,15,24,20,26s17,12,36,19s53,17,88,0   s60-27,68-68s8-91,0-113s-8-22-8-22l-108-8c0,0-44,0-64,12s-26,24-38,25s-49-1-55-2s-11-11-21-19s-38-21-60-23s-105,0-105,0l-6,10   c0,0-4-4-18-4s-49,9-75,21s-41,8-41,8s-10,0-16,1S422.287,416.125,422.287,416.125z"></path></g></svg>